# xmcd
# 
# Track frame offsets:
#     150
#     19353
#     41708
#     65566
#     83709
#     112143
#     134500
#     155021
#     176158
#     201586
#     229255
# 
# Disc length: 3260
# 
# Revision: 8
# Processed by: cddbd v1.5.2PL0 Copyright (c) Steve Scherf et al.
# Submitted via: fre:ac v1.0.31
# 
DISCID=a80cba0b
DTITLE=Chris Rea - Blue Guitars - [01 Beginnings]
DYEAR=2005
DGENRE=Blues
TTITLE0=West Africa
TTITLE1=Cry For Home
TTITLE2=The King Who Sold His Own
TTITLE3=White Man Coming
TTITLE4=Where The Blues Come From
TTITLE5=Lord Tell Me It Won't Be Long
TTITLE6=Work Gang
TTITLE7=Praise The Lord
TTITLE8=Sweet Sunday
TTITLE9=Sing Out The Devil
TTITLE10=Boss Man Cut My Chains
EXTD=CD 2005 - CD 01/11\nJazzee Blue/EarBooks - edel records 9 783937 406329
EXTT0=
EXTT1=
EXTT2=
EXTT3=
EXTT4=
EXTT5=
EXTT6=
EXTT7=
EXTT8=
EXTT9=
EXTT10=
PLAYORDER=
